# xmcd CD database file
#
# Track frame offsets:
#	182
#	14332
#	28360
#	42867
#	56690
#	70462
#	83582
#	97672
#	111195
#	125077
#	139872
#	154425
#	167795
#	181255
#	195082
#	209960
#	224087
#	239030
#	252777
#	267137
#	281657
#	296760
#	311990
#	327387
#
# Disc length: 4556 seconds
#
# Revision: 2
# Processed by: cddbd v1.4PL0 Copyright (c) Steve Scherf et al.
# Submitted via: CDex 1.50beta10
#
DISCID=7e11ca18
DTITLE=Darby and Tarlton - Complete Recordings Disc 2
DYEAR=1995
DGENRE=Country
TTITLE0=Slow Wicked Blues
TTITLE1=Black Jack Moonshine
TTITLE2=Ain't Gonna Marry No More
TTITLE3=down in the Old Cherry Orchard
TTITLE4=When the Bluebirds Nest Again
TTITLE5=Beggar Joe
TTITLE6=When You're Far Away from Home
TTITLE7=Birmingham Rag
TTITLE8=Sweet Sarah Blues
TTITLE9=Little Bessie
TTITLE10=I Left Her at the River
TTITLE11=Jack and May
TTITLE12=Captain Won't You Let Me Go Home
TTITLE13=Going Back to My Texas Home
TTITLE14=the Whistling Songbird
TTITLE15=Freight Train Ramble
TTITLE16=Lonesome Frisco Line
TTITLE17=down among the Sugar Cane
TTITLE18=the Black Sheep
TTITLE19=Little Ola
TTITLE20=Once I Had a Sweetheart
TTITLE21=the Maple on the Hill
TTITLE22=My Father Died a Drunkard
TTITLE23=Frankie Dean
EXTD=YEAR: 1995
EXTT0=
EXTT1=
EXTT2=
EXTT3=
EXTT4=
EXTT5=
EXTT6=
EXTT7=
EXTT8=
EXTT9=
EXTT10=
EXTT11=
EXTT12=
EXTT13=
EXTT14=
EXTT15=
EXTT16=
EXTT17=
EXTT18=
EXTT19=
EXTT20=
EXTT21=
EXTT22=
EXTT23=
PLAYORDER=
